<svg xmlns="http://www.w3.org/2000/svg" xmlns:xlink="http://www.w3.org/1999/xlink" width="1080" zoomAndPan="magnify" viewBox="0 0 810 809.999993" height="1080" preserveAspectRatio="xMidYMid meet" version="1.0"><defs><g/><clipPath id="b3b3bfb3ba"><path d="M 271.609375 255.292969 L 514.609375 255.292969 L 514.609375 498.292969 L 271.609375 498.292969 Z M 271.609375 255.292969 " clip-rule="nonzero"/></clipPath><clipPath id="5a619f3304"><path d="M 393.109375 255.292969 C 326.003906 255.292969 271.609375 309.691406 271.609375 376.792969 C 271.609375 443.894531 326.003906 498.292969 393.109375 498.292969 C 460.210938 498.292969 514.609375 443.894531 514.609375 376.792969 C 514.609375 309.691406 460.210938 255.292969 393.109375 255.292969 Z M 393.109375 255.292969 " clip-rule="nonzero"/></clipPath></defs><g clip-path="url(#b3b3bfb3ba)"><g clip-path="url(#5a619f3304)"><path fill="#000000" d="M 271.609375 255.292969 L 514.609375 255.292969 L 514.609375 498.292969 L 271.609375 498.292969 Z M 271.609375 255.292969 " fill-opacity="1" fill-rule="nonzero"/></g></g><g fill="#ffffff" fill-opacity="1"><g transform="translate(322.829406, 462.670364)"><g><path d="M 5.59375 -143.515625 C 5.59375 -144.847656 6.023438 -145.945312 6.890625 -146.8125 C 7.753906 -147.675781 8.984375 -148.109375 10.578125 -148.109375 L 129.953125 -148.109375 C 131.546875 -148.109375 132.773438 -147.675781 133.640625 -146.8125 C 134.503906 -145.945312 134.9375 -144.847656 134.9375 -143.515625 L 134.9375 -119.765625 C 134.9375 -117.234375 133.472656 -115.96875 130.546875 -115.96875 L 95.21875 -115.96875 C 93.613281 -115.96875 92.8125 -115.304688 92.8125 -113.984375 L 92.8125 -4.390625 C 92.8125 -2.929688 92.476562 -1.832031 91.8125 -1.09375 C 91.15625 -0.363281 90.226562 0 89.03125 0 L 51.09375 0 C 48.695312 0 47.5 -1.328125 47.5 -3.984375 L 47.5 -113.171875 C 47.5 -115.035156 46.769531 -115.96875 45.3125 -115.96875 L 10.1875 -115.96875 C 7.125 -115.96875 5.59375 -117.234375 5.59375 -119.765625 Z M 5.59375 -143.515625 "/></g></g></g></svg>