<svg xmlns="http://www.w3.org/2000/svg" xmlns:xlink="http://www.w3.org/1999/xlink" width="1080" zoomAndPan="magnify" viewBox="0 0 810 809.999993" height="1080" preserveAspectRatio="xMidYMid meet" version="1.0"><defs><g/><clipPath id="7c3ae3aaf4"><path d="M 220.925781 204.613281 L 565.175781 204.613281 L 565.175781 548.863281 L 220.925781 548.863281 Z M 220.925781 204.613281 " clip-rule="nonzero"/></clipPath></defs><g clip-path="url(#7c3ae3aaf4)"><path fill="#ffffff" d="M 393.105469 548.96875 C 297.980469 548.96875 220.925781 471.378906 220.925781 376.789062 C 220.925781 282.199219 297.980469 204.613281 393.105469 204.613281 C 488.226562 204.613281 565.28125 281.667969 565.28125 376.789062 C 565.28125 471.910156 487.695312 548.96875 393.105469 548.96875 Z M 393.105469 215.238281 C 303.828125 215.238281 231.554688 287.511719 231.554688 376.789062 C 231.554688 466.066406 303.828125 538.339844 393.105469 538.339844 C 482.382812 538.339844 554.652344 466.066406 554.652344 376.789062 C 554.652344 287.511719 481.851562 215.238281 393.105469 215.238281 Z M 393.105469 215.238281 " fill-opacity="1" fill-rule="nonzero"/></g><g fill="#ffffff" fill-opacity="1"><g transform="translate(386.158382, 562.300585)"><g><path d="M -30.359375 -7.1875 C -24.785156 -6.03125 -20.140625 -3.71875 -16.421875 -0.25 C -12.703125 3.207031 -10.15625 7.46875 -8.78125 12.53125 C -7.414062 17.601562 -7.359375 23.113281 -8.609375 29.0625 C -9.878906 35.164062 -12.226562 40.289062 -15.65625 44.4375 C -19.09375 48.582031 -23.289062 51.472656 -28.25 53.109375 C -33.207031 54.753906 -38.519531 54.988281 -44.1875 53.8125 C -48.800781 52.84375 -52.738281 51.132812 -56 48.6875 C -59.269531 46.25 -61.734375 43.460938 -63.390625 40.328125 C -65.054688 37.191406 -65.925781 34.050781 -66 30.90625 C -66.019531 30.226562 -65.992188 29.703125 -65.921875 29.328125 C -65.816406 28.847656 -65.640625 28.546875 -65.390625 28.421875 C -65.140625 28.304688 -64.769531 28.273438 -64.28125 28.328125 L -50.109375 29.109375 C -49.515625 29.222656 -49.160156 29.40625 -49.046875 29.65625 C -48.941406 29.90625 -48.875 30.363281 -48.84375 31.03125 C -48.925781 33.59375 -48.34375 35.828125 -47.09375 37.734375 C -45.84375 39.648438 -43.878906 40.890625 -41.203125 41.453125 C -38.035156 42.109375 -35.351562 41.253906 -33.15625 38.890625 C -30.957031 36.523438 -29.175781 32.078125 -27.8125 25.546875 C -26.375 18.691406 -26.257812 13.738281 -27.46875 10.6875 C -28.6875 7.644531 -30.953125 5.773438 -34.265625 5.078125 C -38.609375 4.171875 -41.894531 5.441406 -44.125 8.890625 L -44.515625 9.5625 L -44.796875 10.171875 C -44.898438 10.648438 -44.660156 10.953125 -44.078125 11.078125 L -36.515625 12.65625 C -35.921875 12.78125 -35.53125 13 -35.34375 13.3125 C -35.164062 13.632812 -35.144531 14.117188 -35.28125 14.765625 L -36.890625 22.46875 C -37.078125 23.375 -37.734375 23.710938 -38.859375 23.484375 L -61.328125 18.625 C -62.296875 18.414062 -63 18.03125 -63.4375 17.46875 C -63.882812 16.90625 -64.03125 16.25 -63.875 15.5 L -58.375 -10.78125 C -58.300781 -11.144531 -58.097656 -11.429688 -57.765625 -11.640625 C -57.441406 -11.859375 -57.097656 -11.929688 -56.734375 -11.859375 L -53.671875 -11.21875 C -52.703125 -11.019531 -51.945312 -10.332031 -51.40625 -9.15625 L -49.1875 -3.84375 C -49.164062 -3.664062 -49.070312 -3.554688 -48.90625 -3.515625 C -48.789062 -3.492188 -48.578125 -3.585938 -48.265625 -3.796875 C -46.585938 -4.847656 -45.023438 -5.695312 -43.578125 -6.34375 C -42.128906 -6.988281 -40.285156 -7.441406 -38.046875 -7.703125 C -35.816406 -7.972656 -33.253906 -7.800781 -30.359375 -7.1875 Z M -30.359375 -7.1875 "/></g></g></g><g fill="#ffffff" fill-opacity="1"><g transform="translate(332.453921, 551.643922)"><g><path d="M -31.09375 50.34375 C -31.675781 51.457031 -32.429688 51.769531 -33.359375 51.28125 L -72.640625 30.765625 C -73.515625 30.316406 -73.6875 29.582031 -73.15625 28.5625 L -68.671875 20.15625 C -67.984375 18.84375 -67.007812 18.515625 -65.75 19.171875 L -43.921875 30.578125 C -42.804688 31.148438 -42.007812 30.976562 -41.53125 30.0625 L -38.3125 23.875 C -38.050781 23.382812 -37.972656 22.945312 -38.078125 22.5625 C -38.191406 22.175781 -38.441406 21.882812 -38.828125 21.6875 L -51.921875 14.84375 C -52.941406 14.3125 -53.195312 13.5625 -52.6875 12.59375 L -47.96875 3.5625 C -47.539062 2.738281 -46.890625 2.554688 -46.015625 3.015625 L -32.5625 10.046875 C -32.21875 10.222656 -31.882812 10.269531 -31.5625 10.1875 C -31.25 10.101562 -31.015625 9.910156 -30.859375 9.609375 L -27.0625 2.34375 C -26.851562 1.957031 -26.773438 1.65625 -26.828125 1.4375 C -26.878906 1.226562 -27.070312 1.035156 -27.40625 0.859375 L -51.046875 -11.484375 C -52.109375 -12.035156 -52.398438 -12.769531 -51.921875 -13.6875 L -47.25 -22.625 C -46.988281 -23.113281 -46.640625 -23.425781 -46.203125 -23.5625 C -45.765625 -23.707031 -45.253906 -23.628906 -44.671875 -23.328125 L -5.75 -3 C -5.019531 -2.625 -4.582031 -2.210938 -4.4375 -1.765625 C -4.300781 -1.316406 -4.398438 -0.78125 -4.734375 -0.15625 Z M -31.09375 50.34375 "/></g></g></g><g fill="#ffffff" fill-opacity="1"><g transform="translate(289.619469, 530.582191)"><g><path d="M -41.71875 41.796875 C -42.082031 42.191406 -42.515625 42.398438 -43.015625 42.421875 C -43.523438 42.453125 -44.019531 42.242188 -44.5 41.796875 L -80.578125 8.5 C -81.054688 8.050781 -81.300781 7.570312 -81.3125 7.0625 C -81.332031 6.5625 -81.160156 6.113281 -80.796875 5.71875 L -74.171875 -1.453125 C -73.460938 -2.210938 -72.664062 -2.179688 -71.78125 -1.359375 L -61.109375 8.484375 C -60.628906 8.929688 -60.203125 8.953125 -59.828125 8.546875 L -29.28125 -24.5625 C -28.863281 -25 -28.453125 -25.234375 -28.046875 -25.265625 C -27.640625 -25.304688 -27.257812 -25.160156 -26.90625 -24.828125 L -15.4375 -14.25 C -14.707031 -13.582031 -14.710938 -12.847656 -15.453125 -12.046875 L -45.90625 20.9375 C -46.425781 21.507812 -46.46875 22 -46.03125 22.40625 L -35.421875 32.203125 C -34.492188 33.054688 -34.382812 33.863281 -35.09375 34.625 Z M -41.71875 41.796875 "/></g></g></g><g fill="#ffffff" fill-opacity="1"><g transform="translate(251.872141, 493.896436)"><g/></g></g><g fill="#ffffff" fill-opacity="1"><g transform="translate(243.384426, 483.46899)"><g><path d="M -63.125 13.546875 C -63.644531 12.703125 -63.410156 11.976562 -62.421875 11.375 L -14 -18.296875 C -13.25 -18.742188 -12.609375 -18.875 -12.078125 -18.6875 C -11.546875 -18.5 -11.035156 -18.007812 -10.546875 -17.21875 L -3.390625 -5.53125 C -2.960938 -4.832031 -2.800781 -4.253906 -2.90625 -3.796875 C -3.019531 -3.347656 -3.378906 -2.941406 -3.984375 -2.578125 L -52.5625 27.1875 C -53.070312 27.5 -53.535156 27.625 -53.953125 27.5625 C -54.378906 27.5 -54.722656 27.257812 -54.984375 26.84375 Z M -63.125 13.546875 "/></g></g></g><g fill="#ffffff" fill-opacity="1"><g transform="translate(230.114574, 466.529813)"><g><path d="M -76.40625 -33.421875 C -76.675781 -34.179688 -76.367188 -34.71875 -75.484375 -35.03125 L -20.796875 -54.359375 C -20.378906 -54.503906 -19.976562 -54.457031 -19.59375 -54.21875 C -19.21875 -53.976562 -18.941406 -53.601562 -18.765625 -53.09375 L -15.015625 -42.484375 C -14.847656 -42.023438 -14.789062 -41.625 -14.84375 -41.28125 C -14.90625 -40.9375 -15.101562 -40.503906 -15.4375 -39.984375 L -36.765625 -8.5 C -36.953125 -8.195312 -36.992188 -7.976562 -36.890625 -7.84375 C -36.796875 -7.71875 -36.617188 -7.695312 -36.359375 -7.78125 L -8.1875 -17.734375 C -7.59375 -18.003906 -7.113281 -18.039062 -6.75 -17.84375 C -6.382812 -17.65625 -6.078125 -17.203125 -5.828125 -16.484375 L -2.109375 -5.953125 C -1.648438 -4.660156 -1.9375 -3.832031 -2.96875 -3.46875 L -57.0625 15.65625 C -58.25 16.070312 -59.046875 15.707031 -59.453125 14.5625 L -63.90625 1.953125 C -64.144531 1.285156 -64.234375 0.75 -64.171875 0.34375 C -64.109375 -0.0507812 -63.867188 -0.5625 -63.453125 -1.1875 L -44.15625 -28.875 C -43.800781 -29.351562 -43.671875 -29.71875 -43.765625 -29.96875 C -43.847656 -30.226562 -44.226562 -30.238281 -44.90625 -30 L -70.1875 -21.0625 C -71.28125 -20.675781 -72.03125 -21.050781 -72.4375 -22.1875 Z M -76.40625 -33.421875 "/></g></g></g><g fill="#ffffff" fill-opacity="1"><g transform="translate(212.655335, 412.281934)"><g/></g></g><g fill="#ffffff" fill-opacity="1"><g transform="translate(208.671811, 401.199966)"><g><path d="M -58.953125 -3.390625 C -59.492188 -3.398438 -59.941406 -3.582031 -60.296875 -3.9375 C -60.648438 -4.300781 -60.820312 -4.8125 -60.8125 -5.46875 L -59.890625 -54.546875 C -59.878906 -55.203125 -59.691406 -55.703125 -59.328125 -56.046875 C -58.960938 -56.398438 -58.507812 -56.570312 -57.96875 -56.5625 L -48.203125 -56.390625 C -47.160156 -56.367188 -46.648438 -55.753906 -46.671875 -54.546875 L -46.9375 -40.046875 C -46.957031 -39.390625 -46.691406 -39.054688 -46.140625 -39.046875 L -1.109375 -38.203125 C -0.503906 -38.191406 -0.0546875 -38.046875 0.234375 -37.765625 C 0.535156 -37.484375 0.6875 -37.097656 0.6875 -36.609375 L 0.390625 -21.015625 C 0.367188 -20.023438 -0.1875 -19.539062 -1.28125 -19.5625 L -46.15625 -20.390625 C -46.925781 -20.410156 -47.316406 -20.117188 -47.328125 -19.515625 L -47.59375 -5.078125 C -47.613281 -3.816406 -48.144531 -3.195312 -49.1875 -3.21875 Z M -58.953125 -3.390625 "/></g></g></g><g fill="#ffffff" fill-opacity="1"><g transform="translate(208.031784, 351.230297)"><g><path d="M 10.390625 -30.375 C 8.609375 -24.675781 5.832031 -20.078125 2.0625 -16.578125 C -1.695312 -13.085938 -6.164062 -10.894531 -11.34375 -10 C -16.53125 -9.113281 -22.125 -9.613281 -28.125 -11.5 C -34.132812 -13.375 -39.035156 -16.175781 -42.828125 -19.90625 C -46.617188 -23.644531 -49.082031 -28.03125 -50.21875 -33.0625 C -51.363281 -38.101562 -51.054688 -43.441406 -49.296875 -49.078125 C -47.546875 -54.660156 -44.765625 -59.175781 -40.953125 -62.625 C -37.148438 -66.082031 -32.625 -68.265625 -27.375 -69.171875 C -22.132812 -70.085938 -16.507812 -69.609375 -10.5 -67.734375 C -4.5625 -65.867188 0.289062 -63.078125 4.0625 -59.359375 C 7.832031 -55.648438 10.269531 -51.300781 11.375 -46.3125 C 12.488281 -41.320312 12.160156 -36.007812 10.390625 -30.375 Z M -1.84375 -34.203125 C -1.125 -36.492188 -1.113281 -38.492188 -1.8125 -40.203125 C -2.507812 -41.921875 -4.007812 -43.484375 -6.3125 -44.890625 C -8.613281 -46.304688 -11.882812 -47.675781 -16.125 -49 C -22.59375 -51.03125 -27.460938 -51.753906 -30.734375 -51.171875 C -34.015625 -50.597656 -36.179688 -48.640625 -37.234375 -45.296875 C -38.296875 -41.898438 -37.648438 -39.015625 -35.296875 -36.640625 C -32.941406 -34.273438 -28.53125 -32.078125 -22.0625 -30.046875 C -17.820312 -28.722656 -14.351562 -27.984375 -11.65625 -27.828125 C -8.96875 -27.671875 -6.84375 -28.109375 -5.28125 -29.140625 C -3.71875 -30.171875 -2.570312 -31.859375 -1.84375 -34.203125 Z M -1.84375 -34.203125 "/></g></g></g><g fill="#ffffff" fill-opacity="1"><g transform="translate(223.946458, 297.557192)"><g><path d="M 11.453125 -60 C 18.890625 -54.976562 22.914062 -49.519531 23.53125 -43.625 C 24.15625 -37.726562 22.109375 -31.285156 17.390625 -24.296875 C 12.097656 -16.441406 6.507812 -12.070312 0.625 -11.1875 C -5.25 -10.3125 -11.882812 -12.363281 -19.28125 -17.34375 L -46.90625 -35.984375 C -47.40625 -36.328125 -47.710938 -36.703125 -47.828125 -37.109375 C -47.941406 -37.523438 -47.863281 -37.9375 -47.59375 -38.34375 L -38.875 -51.28125 C -38.320312 -52.09375 -37.566406 -52.175781 -36.609375 -51.53125 L -7.21875 -31.703125 C -3.863281 -29.429688 -1.003906 -28.4375 1.359375 -28.71875 C 3.734375 -29.007812 5.726562 -30.359375 7.34375 -32.765625 C 8.9375 -35.128906 9.472656 -37.535156 8.953125 -39.984375 C 8.441406 -42.441406 6.4375 -44.851562 2.9375 -47.21875 L -26.109375 -66.8125 C -27.148438 -67.519531 -27.378906 -68.304688 -26.796875 -69.171875 L -19.90625 -79.390625 C -19.363281 -80.203125 -18.613281 -80.285156 -17.65625 -79.640625 Z M 11.453125 -60 "/></g></g></g><g fill="#ffffff" fill-opacity="1"><g transform="translate(252.044408, 253.839932)"><g><path d="M -15.3125 -67.625 C -11.820312 -70.539062 -8.148438 -72.550781 -4.296875 -73.65625 C -0.453125 -74.769531 3.28125 -74.988281 6.90625 -74.3125 C 10.539062 -73.632812 13.800781 -72.117188 16.6875 -69.765625 C 17.238281 -69.359375 17.640625 -69.007812 17.890625 -68.71875 C 18.203125 -68.34375 18.335938 -68.03125 18.296875 -67.78125 C 18.253906 -67.53125 18.0625 -67.222656 17.71875 -66.859375 L 7.296875 -56.96875 C 6.867188 -56.613281 6.53125 -56.457031 6.28125 -56.5 C 6.03125 -56.550781 5.628906 -56.773438 5.078125 -57.171875 C 3.023438 -58.867188 1.015625 -59.875 -0.953125 -60.1875 C -2.929688 -60.507812 -4.882812 -59.863281 -6.8125 -58.25 C -9.289062 -56.175781 -10.289062 -53.484375 -9.8125 -50.171875 C -9.332031 -46.867188 -7.039062 -42.757812 -2.9375 -37.84375 C 1.300781 -32.757812 4.929688 -29.664062 7.953125 -28.5625 C 10.984375 -27.457031 13.820312 -28.007812 16.46875 -30.21875 C 18.6875 -32.082031 20.109375 -34.238281 20.734375 -36.6875 C 21.359375 -39.132812 21.09375 -42.117188 19.9375 -45.640625 C 19.75 -46.117188 19.953125 -46.609375 20.546875 -47.109375 C 20.835938 -47.347656 21.082031 -47.515625 21.28125 -47.609375 L 30.484375 -52.609375 C 31.296875 -52.929688 32.015625 -52.710938 32.640625 -51.953125 C 33.628906 -50.773438 34.421875 -48.351562 35.015625 -44.6875 C 35.609375 -41.019531 35.207031 -36.890625 33.8125 -32.296875 C 32.414062 -27.703125 29.363281 -23.441406 24.65625 -19.515625 C 20.207031 -15.796875 15.414062 -13.59375 10.28125 -12.90625 C 5.15625 -12.226562 0.128906 -12.984375 -4.796875 -15.171875 C -9.734375 -17.367188 -14.1875 -20.835938 -18.15625 -25.578125 C -22.082031 -30.285156 -24.601562 -35.164062 -25.71875 -40.21875 C -26.832031 -45.269531 -26.5 -50.160156 -24.71875 -54.890625 C -22.9375 -59.628906 -19.800781 -63.875 -15.3125 -67.625 Z M -15.3125 -67.625 "/></g></g></g><g fill="#ffffff" fill-opacity="1"><g transform="translate(291.54654, 219.15975)"><g><path d="M 12.5625 -31.984375 C 12.207031 -31.828125 11.96875 -31.585938 11.84375 -31.265625 C 11.71875 -30.941406 11.722656 -30.628906 11.859375 -30.328125 L 20.09375 -11.265625 C 20.4375 -10.453125 20.476562 -9.796875 20.21875 -9.296875 C 19.957031 -8.804688 19.394531 -8.375 18.53125 -8 L 5.953125 -2.578125 C 5.191406 -2.242188 4.597656 -2.160156 4.171875 -2.328125 C 3.742188 -2.503906 3.390625 -2.914062 3.109375 -3.5625 L -19.484375 -55.859375 C -19.722656 -56.421875 -19.78125 -56.90625 -19.65625 -57.3125 C -19.539062 -57.71875 -19.257812 -58.019531 -18.8125 -58.21875 L -4.484375 -64.40625 C -4.085938 -64.570312 -3.703125 -64.570312 -3.328125 -64.40625 C -2.953125 -64.238281 -2.65625 -63.90625 -2.4375 -63.40625 L 5.109375 -45.921875 C 5.546875 -44.921875 6.210938 -44.617188 7.109375 -45.015625 L 19.78125 -50.484375 C 20.675781 -50.867188 20.90625 -51.5625 20.46875 -52.5625 L 12.921875 -70.046875 C 12.703125 -70.546875 12.660156 -70.988281 12.796875 -71.375 C 12.929688 -71.757812 13.195312 -72.039062 13.59375 -72.21875 L 27.90625 -78.390625 C 28.363281 -78.585938 28.78125 -78.59375 29.15625 -78.40625 C 29.539062 -78.21875 29.851562 -77.84375 30.09375 -77.28125 L 52.6875 -24.984375 C 52.96875 -24.335938 53.019531 -23.796875 52.84375 -23.359375 C 52.675781 -22.929688 52.21875 -22.554688 51.46875 -22.234375 L 38.890625 -16.796875 C 38.023438 -16.421875 37.320312 -16.304688 36.78125 -16.453125 C 36.238281 -16.609375 35.796875 -17.09375 35.453125 -17.90625 L 27.21875 -36.96875 C 27.082031 -37.269531 26.851562 -37.484375 26.53125 -37.609375 C 26.207031 -37.734375 25.867188 -37.722656 25.515625 -37.578125 Z M 12.5625 -31.984375 "/></g></g></g><g fill="#ffffff" fill-opacity="1"><g transform="translate(344.550811, 198.034752)"><g/></g></g><g fill="#ffffff" fill-opacity="1"><g transform="translate(357.275092, 194.543188)"><g><path d="M 25.640625 -21.125 C 25.734375 -20.300781 25.578125 -19.691406 25.171875 -19.296875 C 24.773438 -18.898438 24.113281 -18.648438 23.1875 -18.546875 L 3.703125 -16.359375 C 2.878906 -16.265625 2.300781 -16.363281 1.96875 -16.65625 C 1.632812 -16.945312 1.429688 -17.445312 1.359375 -18.15625 L 0.515625 -25.65625 C 0.378906 -26.90625 0.828125 -27.585938 1.859375 -27.703125 L 23.15625 -30.078125 C 23.582031 -30.128906 23.945312 -30.019531 24.25 -29.75 C 24.5625 -29.476562 24.742188 -29.101562 24.796875 -28.625 Z M 25.640625 -21.125 "/></g></g></g><g fill="#ffffff" fill-opacity="1"><g transform="translate(384.89638, 191.666516)"><g/></g></g><g fill="#ffffff" fill-opacity="1"><g transform="translate(396.341976, 189.060527)"><g><path d="M 30.5 6.53125 C 24.90625 5.488281 20.210938 3.28125 16.421875 -0.09375 C 12.640625 -3.476562 10.003906 -7.6875 8.515625 -12.71875 C 7.035156 -17.757812 6.851562 -23.265625 7.96875 -29.234375 C 9.113281 -35.367188 11.359375 -40.539062 14.703125 -44.75 C 18.054688 -48.96875 22.191406 -51.953125 27.109375 -53.703125 C 32.023438 -55.460938 37.332031 -55.8125 43.03125 -54.75 C 47.65625 -53.882812 51.625 -52.265625 54.9375 -49.890625 C 58.25 -47.515625 60.769531 -44.773438 62.5 -41.671875 C 64.238281 -38.566406 65.179688 -35.441406 65.328125 -32.296875 C 65.359375 -31.617188 65.335938 -31.09375 65.265625 -30.71875 C 65.171875 -30.238281 65 -29.9375 64.75 -29.8125 C 64.507812 -29.6875 64.144531 -29.644531 63.65625 -29.6875 L 49.46875 -30.171875 C 48.875 -30.273438 48.519531 -30.445312 48.40625 -30.6875 C 48.289062 -30.9375 48.207031 -31.398438 48.15625 -32.078125 C 48.195312 -34.640625 47.570312 -36.863281 46.28125 -38.75 C 44.988281 -40.632812 42.992188 -41.828125 40.296875 -42.328125 C 37.128906 -42.921875 34.46875 -42.007812 32.3125 -39.59375 C 30.164062 -37.175781 28.484375 -32.691406 27.265625 -26.140625 C 25.972656 -19.242188 25.960938 -14.285156 27.234375 -11.265625 C 28.515625 -8.253906 30.820312 -6.4375 34.15625 -5.8125 C 38.507812 -5 41.765625 -6.34375 43.921875 -9.84375 L 44.296875 -10.515625 L 44.59375 -11.125 C 44.675781 -11.601562 44.414062 -11.898438 43.8125 -12.015625 L 36.234375 -13.421875 C 35.640625 -13.535156 35.25 -13.75 35.0625 -14.0625 C 34.875 -14.382812 34.84375 -14.867188 34.96875 -15.515625 L 36.40625 -23.265625 C 36.582031 -24.171875 37.234375 -24.515625 38.359375 -24.296875 L 60.921875 -19.921875 C 61.890625 -19.742188 62.597656 -19.378906 63.046875 -18.828125 C 63.492188 -18.273438 63.648438 -17.617188 63.515625 -16.859375 L 58.578125 9.53125 C 58.515625 9.894531 58.320312 10.1875 58 10.40625 C 57.675781 10.632812 57.332031 10.710938 56.96875 10.640625 L 53.890625 10.0625 C 52.921875 9.882812 52.15625 9.210938 51.59375 8.046875 L 49.25 2.78125 C 49.226562 2.601562 49.132812 2.5 48.96875 2.46875 C 48.851562 2.445312 48.640625 2.546875 48.328125 2.765625 C 46.671875 3.835938 45.125 4.710938 43.6875 5.390625 C 42.257812 6.078125 40.429688 6.578125 38.203125 6.890625 C 35.972656 7.203125 33.40625 7.082031 30.5 6.53125 Z M 30.5 6.53125 "/></g></g></g><g fill="#ffffff" fill-opacity="1"><g transform="translate(450.254991, 198.563746)"><g><path d="M 30.015625 -51 C 30.578125 -52.125 31.320312 -52.453125 32.25 -51.984375 L 71.984375 -32.3125 C 72.859375 -31.882812 73.039062 -31.15625 72.53125 -30.125 L 68.21875 -21.625 C 67.5625 -20.300781 66.597656 -19.957031 65.328125 -20.59375 L 43.25 -31.515625 C 42.132812 -32.066406 41.347656 -31.875 40.890625 -30.9375 L 37.796875 -24.6875 C 37.546875 -24.195312 37.472656 -23.757812 37.578125 -23.375 C 37.691406 -22.988281 37.945312 -22.703125 38.34375 -22.515625 L 51.59375 -15.953125 C 52.613281 -15.441406 52.882812 -14.695312 52.40625 -13.71875 L 47.875 -4.578125 C 47.46875 -3.753906 46.820312 -3.5625 45.9375 -4 L 32.34375 -10.734375 C 32 -10.910156 31.664062 -10.953125 31.34375 -10.859375 C 31.03125 -10.765625 30.800781 -10.566406 30.65625 -10.265625 L 27.015625 -2.921875 C 26.816406 -2.523438 26.738281 -2.222656 26.78125 -2.015625 C 26.832031 -1.816406 27.03125 -1.628906 27.375 -1.453125 L 51.28125 10.375 C 52.351562 10.90625 52.660156 11.632812 52.203125 12.5625 L 47.71875 21.609375 C 47.476562 22.109375 47.132812 22.429688 46.6875 22.578125 C 46.25 22.722656 45.738281 22.648438 45.15625 22.359375 L 5.8125 2.875 C 5.070312 2.507812 4.628906 2.109375 4.484375 1.671875 C 4.335938 1.234375 4.421875 0.695312 4.734375 0.0625 Z M 30.015625 -51 "/></g></g></g><g fill="#ffffff" fill-opacity="1"><g transform="translate(493.529506, 218.702567)"><g><path d="M 40.8125 -42.6875 C 41.164062 -43.09375 41.59375 -43.3125 42.09375 -43.34375 C 42.601562 -43.382812 43.101562 -43.1875 43.59375 -42.75 L 80.375 -10.234375 C 80.863281 -9.796875 81.117188 -9.320312 81.140625 -8.8125 C 81.171875 -8.3125 81.007812 -7.859375 80.65625 -7.453125 L 74.1875 -0.140625 C 73.5 0.640625 72.703125 0.628906 71.796875 -0.171875 L 60.921875 -9.78125 C 60.429688 -10.21875 60.003906 -10.234375 59.640625 -9.828125 L 29.796875 23.921875 C 29.390625 24.378906 28.984375 24.628906 28.578125 24.671875 C 28.171875 24.710938 27.785156 24.570312 27.421875 24.25 L 15.75 13.921875 C 15 13.265625 14.988281 12.523438 15.71875 11.703125 L 45.453125 -21.921875 C 45.960938 -22.492188 45.992188 -22.976562 45.546875 -23.375 L 34.734375 -32.9375 C 33.785156 -33.78125 33.65625 -34.59375 34.34375 -35.375 Z M 40.8125 -42.6875 "/></g></g></g><g fill="#ffffff" fill-opacity="1"><g transform="translate(532.054656, 254.570825)"><g/></g></g><g fill="#ffffff" fill-opacity="1"><g transform="translate(540.769482, 264.813892)"><g><path d="M 62.828125 -14.90625 C 63.359375 -14.070312 63.132812 -13.34375 62.15625 -12.71875 L 14.375 17.984375 C 13.632812 18.453125 13 18.597656 12.46875 18.421875 C 11.9375 18.253906 11.414062 17.773438 10.90625 16.984375 L 3.5 5.453125 C 3.0625 4.765625 2.890625 4.191406 2.984375 3.734375 C 3.085938 3.285156 3.4375 2.867188 4.03125 2.484375 L 51.96875 -28.296875 C 52.476562 -28.628906 52.941406 -28.769531 53.359375 -28.71875 C 53.785156 -28.664062 54.132812 -28.429688 54.40625 -28.015625 Z M 62.828125 -14.90625 "/></g></g></g><g fill="#ffffff" fill-opacity="1"><g transform="translate(554.402649, 281.464722)"><g><path d="M 77.09375 31.765625 C 77.382812 32.523438 77.09375 33.070312 76.21875 33.40625 L 21.953125 53.90625 C 21.546875 54.0625 21.148438 54.019531 20.765625 53.78125 C 20.378906 53.550781 20.09375 53.179688 19.90625 52.671875 L 15.921875 42.15625 C 15.753906 41.695312 15.691406 41.296875 15.734375 40.953125 C 15.785156 40.617188 15.972656 40.179688 16.296875 39.640625 L 36.9375 7.703125 C 37.125 7.410156 37.160156 7.195312 37.046875 7.0625 C 36.941406 6.925781 36.765625 6.90625 36.515625 7 L 8.578125 17.5625 C 7.984375 17.832031 7.5 17.875 7.125 17.6875 C 6.757812 17.507812 6.441406 17.066406 6.171875 16.359375 L 2.234375 5.90625 C 1.742188 4.625 2.007812 3.789062 3.03125 3.40625 L 56.703125 -16.875 C 57.878906 -17.320312 58.679688 -16.976562 59.109375 -15.84375 L 63.84375 -3.328125 C 64.09375 -2.671875 64.191406 -2.132812 64.140625 -1.71875 C 64.085938 -1.3125 63.859375 -0.800781 63.453125 -0.1875 L 44.78125 27.921875 C 44.425781 28.410156 44.296875 28.78125 44.390625 29.03125 C 44.484375 29.28125 44.863281 29.273438 45.53125 29.015625 L 70.640625 19.546875 C 71.710938 19.128906 72.460938 19.488281 72.890625 20.625 Z M 77.09375 31.765625 "/></g></g></g><g fill="#ffffff" fill-opacity="1"><g transform="translate(573.011792, 335.325987)"><g/></g></g><g fill="#ffffff" fill-opacity="1"><g transform="translate(577.231708, 346.319997)"><g><path d="M 59.015625 2.125 C 59.554688 2.125 60.007812 2.300781 60.375 2.65625 C 60.738281 3.007812 60.921875 3.515625 60.921875 4.171875 L 61.0625 53.265625 C 61.0625 53.921875 60.878906 54.425781 60.515625 54.78125 C 60.160156 55.132812 59.710938 55.3125 59.171875 55.3125 L 49.40625 55.34375 C 48.363281 55.34375 47.84375 54.738281 47.84375 53.53125 L 47.796875 39.015625 C 47.796875 38.359375 47.519531 38.03125 46.96875 38.03125 L 1.921875 38.171875 C 1.316406 38.171875 0.863281 38.03125 0.5625 37.75 C 0.257812 37.476562 0.109375 37.097656 0.109375 36.609375 L 0.0625 21.015625 C 0.0625 20.023438 0.609375 19.53125 1.703125 19.53125 L 46.59375 19.40625 C 47.363281 19.394531 47.742188 19.085938 47.734375 18.484375 L 47.703125 4.046875 C 47.691406 2.785156 48.207031 2.15625 49.25 2.15625 Z M 59.015625 2.125 "/></g></g></g><g fill="#ffffff" fill-opacity="1"><g transform="translate(578.950819, 396.264441)"><g><path d="M -9.734375 30.59375 C -8.078125 24.851562 -5.398438 20.195312 -1.703125 16.625 C 1.984375 13.050781 6.40625 10.765625 11.5625 9.765625 C 16.726562 8.765625 22.332031 9.140625 28.375 10.890625 C 34.414062 12.640625 39.367188 15.335938 43.234375 18.984375 C 47.109375 22.640625 49.671875 26.972656 50.921875 31.984375 C 52.179688 36.992188 51.988281 42.335938 50.34375 48.015625 C 48.707031 53.628906 46.019531 58.203125 42.28125 61.734375 C 38.550781 65.273438 34.070312 67.554688 28.84375 68.578125 C 23.625 69.597656 17.992188 69.234375 11.953125 67.484375 C 5.972656 65.742188 1.0625 63.0625 -2.78125 59.4375 C -6.632812 55.8125 -9.164062 51.515625 -10.375 46.546875 C -11.59375 41.578125 -11.378906 36.257812 -9.734375 30.59375 Z M 2.578125 34.171875 C 1.898438 36.484375 1.925781 38.484375 2.65625 40.171875 C 3.394531 41.867188 4.929688 43.394531 7.265625 44.75 C 9.609375 46.113281 12.910156 47.414062 17.171875 48.65625 C 23.679688 50.539062 28.566406 51.15625 31.828125 50.5 C 35.097656 49.851562 37.222656 47.851562 38.203125 44.5 C 39.191406 41.070312 38.484375 38.195312 36.078125 35.875 C 33.671875 33.5625 29.210938 31.460938 22.703125 29.578125 C 18.441406 28.335938 14.957031 27.664062 12.25 27.5625 C 9.550781 27.46875 7.4375 27.953125 5.90625 29.015625 C 4.375 30.085938 3.265625 31.804688 2.578125 34.171875 Z M 2.578125 34.171875 "/></g></g></g><g fill="#ffffff" fill-opacity="1"><g transform="translate(564.180948, 450.266425)"><g><path d="M -10.171875 60.21875 C -17.710938 55.363281 -21.851562 49.992188 -22.59375 44.109375 C -23.34375 38.234375 -21.4375 31.753906 -16.875 24.671875 C -11.75 16.703125 -6.253906 12.210938 -0.390625 11.203125 C 5.472656 10.203125 12.148438 12.113281 19.640625 16.9375 L 47.671875 34.984375 C 48.171875 35.304688 48.484375 35.671875 48.609375 36.078125 C 48.734375 36.492188 48.664062 36.90625 48.40625 37.3125 L 39.96875 50.421875 C 39.425781 51.253906 38.671875 51.359375 37.703125 50.734375 L 7.890625 31.546875 C 4.484375 29.347656 1.601562 28.414062 -0.75 28.75 C -3.113281 29.09375 -5.078125 30.476562 -6.640625 32.90625 C -8.191406 35.3125 -8.679688 37.734375 -8.109375 40.171875 C -7.546875 42.617188 -5.488281 44.984375 -1.9375 47.265625 L 27.53125 66.25 C 28.582031 66.925781 28.828125 67.703125 28.265625 68.578125 L 21.609375 78.9375 C 21.078125 79.757812 20.328125 79.859375 19.359375 79.234375 Z M -10.171875 60.21875 "/></g></g></g><g fill="#ffffff" fill-opacity="1"><g transform="translate(537.026121, 494.575899)"><g><path d="M 16.75 67.28125 C 13.332031 70.269531 9.710938 72.359375 5.890625 73.546875 C 2.066406 74.734375 -1.664062 75.03125 -5.3125 74.4375 C -8.957031 73.84375 -12.253906 72.394531 -15.203125 70.09375 C -15.753906 69.71875 -16.15625 69.382812 -16.40625 69.09375 C -16.726562 68.726562 -16.867188 68.414062 -16.828125 68.15625 C -16.796875 67.90625 -16.617188 67.597656 -16.296875 67.234375 L -6.0625 57.109375 C -5.644531 56.753906 -5.3125 56.59375 -5.0625 56.625 C -4.8125 56.664062 -4.410156 56.878906 -3.859375 57.265625 C -1.753906 58.921875 0.285156 59.882812 2.265625 60.15625 C 4.242188 60.425781 6.179688 59.734375 8.078125 58.078125 C 10.515625 55.953125 11.457031 53.242188 10.90625 49.953125 C 10.351562 46.660156 7.96875 42.597656 3.75 37.765625 C -0.59375 32.785156 -4.289062 29.773438 -7.34375 28.734375 C -10.394531 27.691406 -13.21875 28.304688 -15.8125 30.578125 C -18 32.484375 -19.378906 34.664062 -19.953125 37.125 C -20.535156 39.582031 -20.203125 42.5625 -18.953125 46.0625 C -18.753906 46.539062 -18.945312 47.035156 -19.53125 47.546875 C -19.8125 47.785156 -20.050781 47.957031 -20.25 48.0625 L -29.34375 53.25 C -30.144531 53.59375 -30.875 53.390625 -31.53125 52.640625 C -32.53125 51.484375 -33.367188 49.078125 -34.046875 45.421875 C -34.722656 41.773438 -34.410156 37.640625 -33.109375 33.015625 C -31.804688 28.390625 -28.847656 24.0625 -24.234375 20.03125 C -19.867188 16.21875 -15.125 13.914062 -10 13.125 C -4.882812 12.332031 0.15625 12.976562 5.125 15.0625 C 10.101562 17.15625 14.625 20.53125 18.6875 25.1875 C 22.71875 29.8125 25.347656 34.632812 26.578125 39.65625 C 27.804688 44.6875 27.578125 49.585938 25.890625 54.359375 C 24.210938 59.128906 21.164062 63.4375 16.75 67.28125 Z M 16.75 67.28125 "/></g></g></g><g fill="#ffffff" fill-opacity="1"><g transform="translate(498.286925, 530.094692)"><g><path d="M -11.875 32.25 C -11.53125 32.09375 -11.296875 31.847656 -11.171875 31.515625 C -11.046875 31.191406 -11.054688 30.878906 -11.203125 30.578125 L -19.84375 11.6875 C -20.207031 10.894531 -20.265625 10.242188 -20.015625 9.734375 C -19.765625 9.234375 -19.210938 8.789062 -18.359375 8.40625 L -5.890625 2.703125 C -5.148438 2.359375 -4.5625 2.265625 -4.125 2.421875 C -3.6875 2.585938 -3.316406 2.992188 -3.015625 3.640625 L 20.6875 55.4375 C 20.9375 55.988281 21.003906 56.46875 20.890625 56.875 C 20.773438 57.289062 20.492188 57.597656 20.046875 57.796875 L 5.859375 64.296875 C 5.460938 64.472656 5.078125 64.484375 4.703125 64.328125 C 4.328125 64.171875 4.023438 63.84375 3.796875 63.34375 L -4.125 46.03125 C -4.582031 45.039062 -5.257812 44.75 -6.15625 45.15625 L -18.6875 50.90625 C -19.582031 51.3125 -19.800781 52.007812 -19.34375 53 L -11.421875 70.3125 C -11.191406 70.8125 -11.140625 71.253906 -11.265625 71.640625 C -11.390625 72.023438 -11.648438 72.304688 -12.046875 72.484375 L -26.234375 78.984375 C -26.679688 79.179688 -27.097656 79.1875 -27.484375 79 C -27.867188 78.820312 -28.1875 78.457031 -28.4375 77.90625 L -52.140625 26.109375 C -52.441406 25.460938 -52.507812 24.921875 -52.34375 24.484375 C -52.175781 24.054688 -51.722656 23.671875 -50.984375 23.328125 L -38.515625 17.625 C -37.660156 17.238281 -36.960938 17.113281 -36.421875 17.25 C -35.878906 17.394531 -35.425781 17.863281 -35.0625 18.65625 L -26.421875 37.546875 C -26.273438 37.847656 -26.039062 38.054688 -25.71875 38.171875 C -25.394531 38.296875 -25.0625 38.28125 -24.71875 38.125 Z M -11.875 32.25 "/></g></g></g><g fill="#ffffff" fill-opacity="1"><g transform="translate(445.738742, 552.351008)"><g/></g></g><g fill="#ffffff" fill-opacity="1"><g transform="translate(433.095486, 556.11442)"><g><path d="M -25.171875 21.671875 C -25.285156 20.847656 -25.148438 20.234375 -24.765625 19.828125 C -24.378906 19.421875 -23.722656 19.15625 -22.796875 19.03125 L -3.359375 16.4375 C -2.546875 16.320312 -1.960938 16.40625 -1.609375 16.6875 C -1.265625 16.976562 -1.046875 17.472656 -0.953125 18.171875 L 0.046875 25.65625 C 0.210938 26.90625 -0.21875 27.601562 -1.25 27.75 L -22.484375 30.578125 C -22.921875 30.640625 -23.296875 30.535156 -23.609375 30.265625 C -23.921875 30.003906 -24.109375 29.632812 -24.171875 29.15625 Z M -25.171875 21.671875 "/></g></g></g><path stroke-linecap="butt" transform="matrix(0.749919, 0.0110492, -0.0110492, 0.749919, 357.990777, 288.00399)" fill="none" stroke-linejoin="miter" d="M -0.00257727 5.00047 L 135.756961 5.000432 " stroke="#ffffff" stroke-width="10" stroke-opacity="1" stroke-miterlimit="4"/><path stroke-linecap="butt" transform="matrix(0.476067, -0.579535, 0.579535, 0.476067, 305.131834, 475.556324)" fill="none" stroke-linejoin="miter" d="M 0.000606551 5.002509 L 318.680342 4.99931 " stroke="#ffffff" stroke-width="10" stroke-opacity="1" stroke-miterlimit="4"/><path stroke-linecap="butt" transform="matrix(0, -0.75, 0.75, 0, 455.988077, 404.99592)" fill="none" stroke-linejoin="miter" d="M -0.000232166 5.000273 L 148.994567 5.000273 " stroke="#ffffff" stroke-width="10" stroke-opacity="1" stroke-miterlimit="4"/></svg>